<svg width="19" height="19" viewBox="0 0 19 19" fill="none" xmlns="http://www.w3.org/2000/svg">
<path d="M11.6076 17.3851L11.6167 17.3915C12.4038 17.8926 13.3382 18.1102 14.2657 18.0084C15.1932 17.9065 16.0581 17.4913 16.7177 16.8313L17.2906 16.2584C17.4176 16.1315 17.5183 15.9808 17.587 15.815C17.6557 15.6492 17.6911 15.4714 17.6911 15.2919C17.6911 15.1124 17.6557 14.9347 17.587 14.7688C17.5183 14.603 17.4176 14.4524 17.2906 14.3255L14.874 11.9107C14.7471 11.7838 14.5965 11.683 14.4307 11.6143C14.2648 11.5456 14.0871 11.5102 13.9076 11.5102C13.7281 11.5102 13.5503 11.5456 13.3845 11.6143C13.2187 11.683 13.068 11.7838 12.9411 11.9107C12.6849 12.1669 12.3375 12.3108 11.9752 12.3108C11.6129 12.3108 11.2654 12.1669 11.0092 11.9107L7.14522 8.04586C6.88907 7.78963 6.74517 7.44217 6.74517 7.07987C6.74517 6.71757 6.88907 6.3701 7.14522 6.11388C7.27218 5.987 7.3729 5.83633 7.44162 5.67051C7.51034 5.50468 7.54571 5.32694 7.54571 5.14744C7.54571 4.96794 7.51034 4.79019 7.44162 4.62437C7.3729 4.45854 7.27218 4.30788 7.14522 4.18099L4.72956 1.76625C4.47334 1.51011 4.12587 1.36621 3.76357 1.36621C3.40127 1.36621 3.05381 1.51011 2.79758 1.76625L2.22373 2.33919C1.56388 2.99883 1.14882 3.86385 1.04713 4.79131C0.94544 5.71878 1.16321 6.65318 1.66445 7.44012L1.66991 7.44923C4.3171 11.3658 7.69054 14.7386 11.6076 17.3851V17.3851Z" stroke="#170F49" stroke-width="1.4" stroke-linecap="round" stroke-linejoin="round"/>
</svg>
