<svg width="16" height="19" viewBox="0 0 16 19" fill="none" xmlns="http://www.w3.org/2000/svg">
<path d="M15.2169 8.65601C15.2169 14.0348 9.70769 17.3486 8.5628 17.9798C8.49938 18.0148 8.42813 18.0331 8.35569 18.0331C8.28326 18.0331 8.21201 18.0148 8.14858 17.9798C7.00284 17.3486 1.49536 14.0348 1.49536 8.65601C1.49536 4.36804 4.06815 1.36646 8.35612 1.36646C12.6441 1.36646 15.2169 4.36804 15.2169 8.65601Z" stroke="#170F49" stroke-width="1.4" stroke-linecap="round" stroke-linejoin="round"/>
<path d="M4.92578 8.22726C4.92578 9.13705 5.2872 10.0096 5.93052 10.6529C6.57384 11.2962 7.44637 11.6576 8.35616 11.6576C9.26596 11.6576 10.1385 11.2962 10.7818 10.6529C11.4251 10.0096 11.7865 9.13705 11.7865 8.22726C11.7865 7.31746 11.4251 6.44493 10.7818 5.80161C10.1385 5.15829 9.26596 4.79688 8.35616 4.79688C7.44637 4.79688 6.57384 5.15829 5.93052 5.80161C5.2872 6.44493 4.92578 7.31746 4.92578 8.22726V8.22726Z" stroke="#170F49" stroke-width="1.4" stroke-linecap="round" stroke-linejoin="round"/>
</svg>
